<?xml version="1.0" standalone="no"?>
<!DOCTYPE svg PUBLIC "-//W3C//DTD SVG 20010904//EN"
 "http://www.w3.org/TR/2001/REC-SVG-20010904/DTD/svg10.dtd">
<svg version="1.0" xmlns="http://www.w3.org/2000/svg"
 width="300.000000pt" height="300.000000pt" viewBox="0 0 300.000000 300.000000"
 preserveAspectRatio="xMidYMid meet">
<metadata>
Created by potrace 1.10, written by Peter Selinger 2001-2011
</metadata>
<g transform="translate(0.000000,300.000000) scale(0.100000,-0.100000)"
fill="#1a70f9" stroke="none">
<path d="M0 1500 l0 -1500 1500 0 1500 0 0 1500 0 1500 -1500 0 -1500 0 0
-1500z m1705 1319 c486 -71 918 -435 1073 -904 89 -270 90 -585 2 -847 -115
-343 -361 -624 -689 -788 -192 -96 -366 -134 -601 -134 -185 1 -298 19 -457
75 -394 139 -701 455 -832 857 -49 149 -64 270 -58 460 7 227 41 362 140 557
266 522 832 810 1422 724z"/>
<path d="M1353 2810 c-307 -35 -565 -156 -787 -371 -271 -261 -407 -574 -408
-944 -1 -369 130 -686 391 -945 248 -246 546 -374 901 -387 226 -8 421 33 625
131 374 181 639 520 727 929 28 134 31 379 5 509 -54 272 -172 493 -367 688
-152 152 -311 253 -508 324 -161 57 -409 86 -579 66z m369 -26 c174 -28 357
-102 518 -209 98 -65 284 -250 347 -345 156 -233 226 -461 226 -735 0 -273
-66 -503 -206 -718 -405 -620 -1230 -791 -1849 -384 -372 244 -588 647 -588
1097 0 216 40 389 135 579 265 528 826 812 1417 715z"/>
<path d="M1256 2774 c-456 -82 -850 -417 -1004 -854 -57 -163 -67 -227 -67
-435 1 -172 3 -200 27 -297 66 -261 186 -470 373 -646 183 -174 410 -289 665
-337 140 -27 372 -26 507 3 266 57 472 170 664 361 257 257 382 559 382 921 0
222 -38 383 -138 585 -67 134 -131 222 -250 340 -186 186 -433 315 -690 359
-113 20 -360 20 -469 0z m331 -359 c88 -17 227 -56 307 -86 l53 -19 7 -59 c9
-82 -10 -303 -35 -391 -35 -127 -92 -224 -188 -321 -97 -97 -216 -175 -253
-165 -45 11 -88 46 -104 83 -21 50 -13 153 17 225 29 66 79 148 79 128 0 -22
-58 -234 -77 -282 -16 -40 -16 -41 6 -60 13 -10 26 -18 30 -18 7 0 73 199 87
262 3 16 10 25 15 22 5 -3 9 15 9 40 0 24 5 57 10 72 11 29 70 107 76 101 2
-2 -7 -61 -20 -130 -24 -125 -59 -251 -98 -354 -19 -53 -19 -53 -44 -36 -33
21 -45 7 -14 -17 30 -23 50 -25 50 -6 0 8 18 25 40 37 38 22 42 29 71 118 16
53 44 171 61 264 l32 167 33 0 c18 0 33 -2 33 -4 0 -25 -65 -339 -80 -388 -16
-51 -28 -71 -60 -97 -37 -30 -51 -51 -32 -51 15 0 92 72 87 81 -3 4 12 28 33
51 52 57 57 68 77 178 10 52 24 124 32 160 26 115 27 142 4 172 -12 14 -36 30
-54 33 -17 4 -43 14 -57 23 -17 11 -60 18 -137 22 -79 5 -119 11 -137 24 -30
19 -35 5 -7 -23 20 -20 20 -20 -2 -26 -12 -4 -64 -23 -116 -42 -80 -29 -104
-34 -163 -31 -37 2 -68 0 -68 -3 0 -16 60 -60 90 -66 l35 -7 -55 -17 c-30 -10
-69 -18 -87 -18 -41 -1 -44 13 -46 199 -1 113 2 143 14 151 24 16 233 80 326
99 110 23 123 23 220 5z m80 -291 c24 -3 40 -10 37 -15 -7 -12 -71 -11 -79 1
-3 6 -21 10 -38 10 -25 0 -29 3 -17 10 8 6 24 8 35 6 11 -3 39 -8 62 -12z
m146 -45 c17 -22 22 -55 11 -84 -6 -15 -8 -15 -25 1 -14 13 -31 15 -74 12 -95
-8 -186 -91 -204 -188 -7 -42 -8 -43 -16 -18 -6 25 -3 40 21 103 12 33 -41
-20 -93 -92 -80 -112 -122 -264 -95 -342 10 -29 10 -30 -8 -21 -35 19 -63 71
-68 124 -11 134 140 335 321 428 53 27 73 32 135 33 62 0 76 -3 88 -19 13 -19
14 -19 14 6 0 14 -8 35 -17 46 -20 22 -63 39 -63 24 0 -6 -7 -12 -15 -16 -12
-4 -13 -2 -2 15 15 26 64 19 90 -12z m-447 13 c-3 -5 -34 -23 -70 -42 -52 -26
-73 -32 -102 -27 -58 10 -58 22 0 24 30 1 79 13 112 26 71 30 66 29 60 19z
m60 -1 c-9 -14 -188 -146 -236 -174 -67 -38 -124 -51 -166 -37 -34 11 -64 51
-64 85 0 12 4 11 19 -4 61 -61 222 -20 391 100 57 41 65 45 56 30z m36 -67
c-32 -16 -94 -65 -156 -124 -57 -54 -117 -105 -134 -114 -48 -25 -105 -21
-141 10 -41 34 -39 43 8 37 59 -8 127 20 251 104 114 76 182 113 210 112 8 0
-9 -11 -38 -25z m-33 -84 c-52 -45 -135 -152 -169 -220 -13 -25 -26 -72 -30
-105 l-6 -60 -19 37 c-18 37 -18 37 7 88 l25 50 -23 -15 c-32 -21 -84 -18
-114 5 l-25 20 43 0 c57 0 88 17 183 103 92 82 159 137 168 137 3 0 -15 -18
-40 -40z m-649 -760 c27 -63 50 -116 50 -117 0 -2 -13 -3 -29 -3 -22 0 -30 6
-35 25 -6 23 -11 25 -61 25 -50 0 -55 -2 -61 -25 -5 -19 -13 -25 -35 -25 l-28
0 19 43 c10 23 32 77 50 120 29 70 35 78 56 75 21 -3 32 -21 74 -118z m163 48
l33 -72 32 72 c29 66 34 72 62 72 l30 0 0 -120 0 -120 -26 0 -26 0 4 80 c2 44
2 80 0 80 -1 0 -16 -30 -32 -66 -38 -83 -54 -82 -92 6 l-27 65 -1 -82 c0 -82
0 -83 -25 -83 l-25 0 0 120 0 120 30 0 c27 0 32 -6 63 -72z m377 50 c0 -22 -3
-23 -60 -20 l-60 4 0 -31 c0 -31 0 -31 55 -31 48 0 55 -2 55 -20 0 -18 -7 -20
-55 -20 -55 0 -55 0 -55 -31 l0 -30 62 2 c57 2 62 1 63 -19 2 -21 -2 -22 -87
-22 l-88 0 0 120 0 120 85 0 c81 0 85 -1 85 -22z m211 -7 c25 -31 25 -85 -2
-112 l-21 -21 26 -39 26 -39 -29 0 c-22 0 -34 9 -53 38 -15 22 -34 38 -47 39
-18 2 -21 -4 -21 -38 0 -35 -3 -39 -25 -39 l-25 0 0 121 0 121 76 -4 c65 -3
79 -7 95 -27z m109 -91 l0 -120 -25 0 -25 0 0 120 0 120 25 0 25 0 0 -120z
m237 97 c13 -13 14 -19 4 -31 -11 -13 -17 -13 -47 2 -32 15 -38 15 -62 1 -54
-30 -54 -108 0 -138 24 -14 30 -14 61 1 26 12 37 14 46 5 17 -17 14 -25 -19
-42 -84 -43 -180 13 -180 105 0 42 24 86 58 105 34 19 117 14 139 -8z m219
-97 l51 -120 -28 0 c-22 0 -30 6 -35 25 -6 23 -11 25 -64 25 -53 0 -58 -2 -64
-25 -5 -18 -13 -25 -31 -25 -14 0 -25 2 -25 4 0 2 20 51 45 109 25 58 45 111
45 116 0 6 12 11 28 11 25 0 30 -8 78 -120z m177 37 c32 -45 53 -83 48 -85
-10 -3 11 -32 23 -32 10 0 7 38 -3 42 -5 2 -10 38 -13 81 -3 75 -3 77 19 77
23 0 23 -2 23 -121 0 -119 0 -120 -22 -117 -25 3 -136 149 -134 176 0 8 -5 17
-11 19 -8 3 -13 -4 -13 -15 0 -11 5 -22 12 -24 8 -3 14 -33 16 -81 l4 -77 -26
0 -26 0 0 120 c0 118 0 120 23 120 16 -1 37 -22 80 -83z m-1250 -238 c39 -10
42 -15 28 -38 -7 -11 -15 -11 -46 -1 -25 8 -40 9 -47 2 -16 -16 -2 -39 29 -46
49 -12 73 -34 73 -66 0 -57 -59 -82 -128 -54 -36 14 -40 19 -32 35 10 18 12
18 46 2 26 -13 39 -15 52 -7 30 19 19 38 -31 52 -57 16 -77 46 -59 87 11 23
41 43 67 44 6 1 27 -4 48 -10z m1112 -3 c37 -16 42 -25 24 -43 -8 -8 -19 -6
-40 6 -26 14 -31 15 -56 1 -40 -23 -52 -64 -30 -102 14 -25 15 -33 5 -39 -20
-13 -25 -11 -42 13 -21 29 -20 97 0 127 16 22 66 50 92 51 7 0 28 -7 47 -14z
m-1505 -104 c0 -106 0 -109 -22 -107 -22 2 -23 6 -26 108 l-3 107 26 0 25 0 0
-108z m140 36 l50 -71 0 71 c0 68 1 72 23 72 22 0 22 -2 19 -109 -3 -95 -5
-108 -20 -107 -16 1 -110 118 -114 141 0 5 -2 16 -2 24 -2 27 -26 24 -26 -4 0
-15 4 -24 10 -20 6 4 10 -21 10 -67 0 -66 -2 -74 -19 -74 -18 0 -20 9 -23 108
-3 106 -3 108 19 108 16 0 36 -19 73 -72z m370 -2 c0 -94 21 -122 71 -96 16 9
19 22 19 90 0 79 0 80 26 80 l26 0 -3 -84 c-3 -65 -8 -89 -23 -105 -44 -48
-134 -31 -155 30 -6 18 -11 61 -11 95 0 62 1 64 25 64 24 0 25 -2 25 -74z
m335 54 c24 -27 23 -75 -3 -103 l-20 -22 24 -30 c30 -38 30 -44 -2 -41 -16 2
-32 14 -44 34 -28 45 -60 44 -60 -2 0 -29 -3 -33 -25 -33 l-25 0 0 108 0 109
68 0 c56 0 72 -4 87 -20z m213 -83 c23 -56 42 -105 42 -108 0 -16 -44 1 -51
19 -7 19 -16 22 -59 22 -43 0 -52 -3 -59 -23 -5 -13 -18 -23 -31 -24 -25 -2
-27 -11 28 124 33 82 40 93 62 93 22 0 30 -11 68 -103z m158 37 c26 -36 47
-74 48 -85 1 -26 20 -25 24 2 2 13 0 19 -7 15 -8 -5 -11 15 -11 63 0 64 2 71
20 71 19 0 20 -7 20 -108 0 -103 -1 -109 -20 -107 -13 1 -38 27 -68 70 l-47
69 -5 -70 c-4 -58 -8 -69 -23 -69 -17 0 -19 11 -20 108 -2 104 -1 107 20 107
16 0 35 -19 69 -66z m514 45 c0 -19 -5 -21 -55 -17 -55 3 -55 3 -55 -25 0 -28
1 -29 50 -25 45 3 50 1 50 -17 0 -18 -5 -20 -50 -17 l-50 4 0 -32 0 -32 58 4
c49 3 57 1 57 -14 0 -10 -3 -18 -7 -18 -5 0 -39 0 -77 0 l-70 0 -3 105 -3 105
78 0 c71 0 77 -1 77 -21z m-110 -345 c55 -3 103 -11 107 -17 4 -6 -3 -8 -18
-4 -13 4 -66 7 -116 7 l-93 0 0 126 c0 111 -2 125 -15 114 -8 -7 -15 -21 -15
-31 0 -10 -16 -27 -40 -40 l-40 -23 0 -63 c0 -46 4 -63 14 -63 10 0 12 12 8
49 -4 44 -2 51 22 66 14 9 29 15 33 13 4 -1 5 -37 2 -78 l-5 -75 -2 67 c-2 55
-5 66 -17 62 -11 -5 -15 -22 -15 -65 l0 -59 -77 0 c-43 0 -89 -3 -103 -6 -18
-5 -22 -4 -15 4 6 6 37 12 70 14 l60 3 1 73 c1 72 2 73 35 91 22 12 35 27 37
42 2 16 15 31 40 44 l37 20 3 -132 3 -131 99 -8z m-56 161 c4 -14 20 -32 37
-40 30 -16 49 -49 49 -86 0 -10 -4 -19 -10 -19 -5 0 -10 15 -10 34 0 30 -5 38
-40 57 -28 16 -40 29 -40 45 0 13 -4 26 -10 29 -5 3 -10 11 -10 17 0 19 28
-11 34 -37z m-204 -75 c0 -7 -243 -10 -710 -10 -467 0 -710 3 -710 10 0 7 243
10 710 10 467 0 710 -3 710 -10z m390 0 c0 -5 -22 -10 -50 -10 -27 0 -50 5
-50 10 0 6 23 10 50 10 28 0 50 -4 50 -10z"/>
<path d="M1429 2406 c-3 -3 -39 -12 -81 -21 -42 -8 -125 -31 -186 -50 l-109
-35 -6 -37 c-10 -60 3 -266 17 -281 9 -9 11 21 8 142 l-4 154 94 31 c52 17
146 42 208 56 106 22 118 23 191 10 98 -17 141 -29 258 -67 l94 -31 -6 -151
c-7 -176 -30 -285 -82 -388 -37 -71 -41 -88 -25 -88 15 0 87 159 105 235 34
138 42 384 13 410 -46 44 -462 138 -489 111z"/>
<path d="M1400 2349 c-18 -5 -20 -7 -7 -8 22 -1 17 -25 -6 -29 -11 -2 -17 3
-18 15 0 15 -1 15 -9 -3 -4 -12 -18 -24 -29 -27 -23 -6 -27 3 -9 21 18 18 7
20 -37 8 l-40 -12 30 -15 c17 -8 30 -20 29 -27 -1 -6 -2 -23 -2 -36 -2 -17
-11 -27 -34 -35 -31 -11 -35 -10 -55 16 -28 34 -28 38 -2 64 11 11 19 22 17
24 -5 5 -108 -27 -125 -38 -7 -5 -13 -20 -13 -34 0 -25 1 -25 18 -10 23 21 41
21 70 1 28 -20 25 -64 -6 -80 -12 -6 -20 -13 -17 -15 2 -3 -5 -5 -15 -6 -11
-1 -27 8 -35 20 -16 22 -16 21 -13 -13 3 -35 4 -35 54 -38 53 -4 121 12 210
49 42 18 50 25 47 43 -7 35 18 49 58 32 19 -8 81 -17 138 -20 103 -6 104 -6
87 13 -10 11 -15 25 -11 30 3 6 1 11 -5 11 -6 0 -8 5 -5 10 3 6 2 10 -3 10 -6
0 -12 -7 -16 -15 -7 -18 -60 -20 -73 -2 -23 28 -21 57 3 76 l24 19 -31 6 c-48
9 -53 7 -35 -13 26 -28 3 -73 -41 -82 -26 -5 -33 -2 -44 17 -15 29 -29 31 -29
5 0 -21 -16 -36 -46 -43 -27 -7 -39 1 -48 30 -6 17 -3 22 9 22 12 0 16 -6 12
-20 -3 -11 -1 -20 4 -20 5 0 9 5 9 11 0 6 9 8 22 4 17 -6 20 -4 14 10 -10 26
30 58 56 44 14 -7 17 -16 12 -32 -6 -19 -5 -20 10 -8 13 11 19 11 33 0 15 -12
16 -12 10 5 -4 10 -2 25 4 32 9 11 8 14 -1 14 -7 0 -19 8 -26 18 -13 16 -13
16 -14 0 0 -12 -8 -18 -21 -18 -14 0 -19 5 -16 13 6 15 -6 17 -43 6z"/>
<path d="M1611 2326 c-1 -13 -6 -17 -21 -13 -11 3 -20 1 -20 -4 0 -5 5 -9 11
-9 6 0 8 -8 4 -19 -5 -16 -2 -18 15 -14 11 3 20 0 20 -6 0 -6 4 -11 9 -11 5 0
7 9 4 20 -4 15 0 20 13 21 18 0 18 1 0 8 -11 4 -23 16 -27 27 -7 18 -8 18 -8
0z"/>
<path d="M1653 2323 c9 -11 17 -24 17 -30 0 -8 8 -8 25 0 31 15 32 24 3 32
-68 19 -65 20 -45 -2z"/>
<path d="M1740 2310 c0 -5 8 -15 18 -22 32 -23 34 -37 9 -73 -18 -26 -26 -32
-35 -23 -6 6 -15 9 -18 5 -8 -7 15 -31 38 -40 19 -7 30 5 32 36 1 12 14 28 33
38 32 18 32 18 53 -8 l20 -26 0 36 c0 34 -2 37 -42 47 -24 6 -58 17 -75 25
-18 8 -33 11 -33 5z"/>
<path d="M1241 2283 c-1 -17 -7 -23 -23 -23 -23 -1 -23 -1 -3 -13 13 -7 20
-20 18 -32 -4 -19 -3 -19 7 -2 8 13 18 16 33 11 19 -6 20 -5 9 9 -9 10 -10 17
-2 22 17 11 11 23 -9 18 -13 -3 -21 1 -24 14 -4 15 -5 14 -6 -4z"/>
<path d="M1731 2281 c-1 -8 -8 -11 -21 -8 -21 5 -28 -7 -10 -18 8 -5 7 -12 -2
-23 -11 -14 -10 -15 6 -9 12 5 23 1 33 -10 13 -17 14 -17 10 2 -2 12 5 25 18
32 20 12 20 12 -2 13 -12 0 -24 8 -26 18 -3 9 -5 11 -6 3z"/>
<path d="M1130 2213 c0 -15 -6 -23 -17 -23 -17 -1 -17 -1 -1 -11 11 -6 15 -16
11 -27 -6 -15 -5 -15 10 -3 9 7 24 11 32 7 17 -6 21 9 5 19 -8 5 -7 12 2 23
11 13 10 15 -4 9 -11 -4 -21 0 -27 11 -9 15 -10 14 -11 -5z"/>
<path d="M1838 2218 c-5 -12 -13 -15 -25 -11 -15 6 -16 4 -5 -9 9 -11 10 -18
2 -23 -18 -11 -11 -23 10 -18 11 3 20 0 20 -6 0 -6 5 -11 11 -11 6 0 9 7 5 15
-3 8 2 19 12 24 16 10 16 10 0 11 -9 0 -18 10 -20 23 -3 19 -4 19 -10 5z"/>
<path d="M1867 2136 c-17 -26 -18 -30 -3 -44 21 -21 28 -12 24 34 l-3 38 -18
-28z"/>
<path d="M1873 2043 c3 -14 -1 -43 -8 -62 -7 -20 -15 -58 -19 -86 -4 -27 -9
-58 -12 -67 -3 -10 -1 -18 4 -18 8 0 25 63 37 140 17 114 17 120 5 120 -8 0
-11 -9 -7 -27z"/>
<path d="M1096 2007 c3 -10 9 -15 12 -12 3 3 0 11 -7 18 -10 9 -11 8 -5 -6z"/>
<path d="M1717 1930 c-3 -8 -8 -33 -11 -55 -3 -22 -8 -55 -12 -72 -4 -18 -2
-33 3 -33 11 0 38 142 30 162 -4 10 -6 10 -10 -2z"/>
<path d="M1570 1830 c-6 -11 -9 -29 -7 -38 4 -13 5 -13 6 4 0 11 6 25 13 32 6
6 9 14 6 18 -4 3 -12 -4 -18 -16z"/>
<path d="M1558 1747 c-3 -19 -2 -25 4 -19 6 6 8 18 6 28 -3 14 -5 12 -10 -9z"/>
<path d="M1686 1750 c-8 -18 -37 -148 -39 -172 -1 -10 -5 -18 -9 -18 -4 0 -8
-8 -8 -17 1 -17 1 -17 14 -1 17 23 59 182 53 205 -3 15 -5 15 -11 3z"/>
<path d="M1527 1663 c-3 -16 -3 -30 -1 -33 7 -7 24 23 24 43 0 27 -17 20 -23
-10z"/>
<path d="M1510 1600 c0 -11 4 -20 9 -20 6 0 9 9 8 20 -1 11 -5 20 -9 20 -4 0
-8 -9 -8 -20z"/>
<path d="M1490 1537 c0 -13 -5 -28 -11 -34 -6 -6 -9 -23 -7 -39 3 -25 6 -20
25 34 17 50 18 62 7 62 -8 0 -14 -10 -14 -23z"/>
<path d="M1544 1956 c-10 -8 -16 -17 -13 -20 3 -3 14 3 24 14 21 23 17 26 -11
6z"/>
<path d="M1395 1820 c-3 -5 -1 -10 4 -10 6 0 11 5 11 10 0 6 -2 10 -4 10 -3 0
-8 -4 -11 -10z"/>
<path d="M1343 1752 c-17 -26 -33 -57 -35 -68 -1 -10 -6 -21 -10 -24 -11 -9
-17 -92 -8 -115 7 -18 8 -18 15 8 4 15 5 36 2 47 -3 11 -2 18 3 15 10 -6 22
54 13 68 -3 6 -1 7 5 3 7 -4 12 -1 12 6 0 7 11 34 24 61 31 61 20 61 -21 -1z"/>
<path d="M1173 1839 c-7 -7 -33 -18 -60 -25 l-48 -13 39 0 c33 -1 106 30 106
45 0 9 -27 3 -37 -7z"/>
<path d="M1230 1755 c-10 -12 -10 -15 3 -15 8 0 17 7 21 15 3 8 2 15 -3 15 -5
0 -14 -7 -21 -15z"/>
<path d="M693 1215 c-6 -17 -14 -38 -18 -47 -6 -15 -1 -18 29 -18 41 0 41 0
17 55 l-18 39 -10 -29z"/>
<path d="M880 1239 c0 -11 5 -17 10 -14 6 3 10 13 10 21 0 8 -4 14 -10 14 -5
0 -10 -9 -10 -21z"/>
<path d="M1047 1254 c-8 -8 1 -24 14 -24 5 0 9 7 9 15 0 15 -12 20 -23 9z"/>
<path d="M1410 1216 l0 -42 43 5 c36 5 42 10 45 33 4 30 -17 46 -60 46 -26 0
-28 -3 -28 -42z"/>
<path d="M1391 1154 c0 -11 3 -14 6 -6 3 7 2 16 -1 19 -3 4 -6 -2 -5 -13z"/>
<path d="M2006 1206 c-22 -53 -21 -56 18 -56 l35 0 -13 33 c-7 17 -16 39 -18
47 -3 10 -11 1 -22 -24z"/>
<path d="M823 824 c-3 -8 -1 -20 6 -27 8 -8 11 -4 11 16 0 30 -7 35 -17 11z"/>
<path d="M1365 905 c0 -32 2 -35 30 -35 41 0 57 13 53 41 -2 20 -9 24 -43 27
-40 3 -40 3 -40 -33z"/>
<path d="M1340 850 c0 -5 4 -10 9 -10 6 0 13 5 16 10 3 6 -1 10 -9 10 -9 0
-16 -4 -16 -10z"/>
<path d="M1615 950 c3 -5 8 -10 11 -10 2 0 4 5 4 10 0 6 -5 10 -11 10 -5 0 -7
-4 -4 -10z"/>
<path d="M1607 908 c-2 -13 -8 -31 -12 -40 -6 -15 -2 -18 24 -18 36 0 35 -3
16 44 -18 42 -21 44 -28 14z"/>
<path d="M1560 839 c0 -5 5 -7 10 -4 6 3 10 8 10 11 0 2 -4 4 -10 4 -5 0 -10
-5 -10 -11z"/>
<path d="M1660 840 c0 -5 5 -10 10 -10 6 0 10 5 10 10 0 6 -4 10 -10 10 -5 0
-10 -4 -10 -10z"/>
<path d="M1777 936 c-7 -18 1 -26 18 -19 8 2 11 11 8 19 -7 18 -19 18 -26 0z"/>
<path d="M2231 874 c0 -11 3 -14 6 -6 3 7 2 16 -1 19 -3 4 -6 -2 -5 -13z"/>
</g>
</svg>
