<?xml version="1.0" standalone="no"?>
<!DOCTYPE svg PUBLIC "-//W3C//DTD SVG 20010904//EN"
 "http://www.w3.org/TR/2001/REC-SVG-20010904/DTD/svg10.dtd">
<svg version="1.0" xmlns="http://www.w3.org/2000/svg"
 width="300.000000pt" height="300.000000pt" viewBox="0 0 300.000000 300.000000"
 preserveAspectRatio="xMidYMid meet">
<metadata>
Created by potrace 1.10, written by Peter Selinger 2001-2011
</metadata>
<g transform="translate(0.000000,300.000000) scale(0.100000,-0.100000)"
fill="#000000" stroke="none">
<path d="M1370 2829 c-254 -23 -488 -113 -692 -266 -244 -185 -422 -447 -499
-738 -27 -105 -32 -141 -36 -287 -6 -194 9 -312 62 -474 127 -388 439 -706
828 -843 162 -57 272 -75 462 -75 137 0 190 5 272 22 444 96 808 396 978 807
207 499 92 1079 -289 1460 -232 231 -520 365 -851 395 -112 10 -116 10 -235
-1z m367 -35 c399 -69 778 -355 953 -718 101 -210 134 -357 134 -591 -1 -125
-6 -182 -23 -262 -54 -257 -165 -466 -348 -654 -192 -198 -411 -320 -683 -380
-138 -31 -398 -34 -529 -6 -285 61 -502 177 -697 371 -198 199 -322 437 -368
708 -19 111 -22 322 -6 425 47 296 179 545 403 760 312 298 730 423 1164 347z"/>
<path d="M1310 2793 c-216 -34 -396 -105 -575 -227 -252 -172 -449 -453 -526
-751 -41 -159 -51 -377 -24 -536 72 -432 338 -787 730 -975 181 -86 334 -123
545 -129 l135 -4 -133 9 c-236 16 -379 52 -567 145 -313 155 -558 443 -659
776 -46 151 -59 257 -53 434 5 166 28 286 77 413 181 466 617 797 1110 841 83
7 87 8 30 8 -36 0 -76 -1 -90 -4z"/>
<path d="M1621 2789 c444 -40 850 -319 1053 -726 44 -88 82 -200 107 -313 14
-61 18 -71 14 -34 -15 150 -125 405 -239 555 -125 165 -292 304 -476 397 -152
76 -371 134 -499 131 -44 -1 -36 -4 40 -10z"/>
<path d="M1367 2409 c-98 -21 -205 -51 -284 -81 l-53 -19 0 -143 c0 -79 3
-158 6 -175 6 -31 7 -31 53 -26 25 3 62 11 81 17 l35 11 -30 10 c-28 9 -85 54
-85 66 0 3 35 6 78 6 63 0 94 6 167 33 50 19 96 36 104 38 11 4 11 8 -3 22
-27 30 -20 47 10 27 19 -12 59 -19 138 -24 80 -5 119 -12 136 -24 14 -9 35
-17 49 -17 14 0 37 -14 57 -35 34 -36 36 -56 14 -115 -5 -14 -18 -77 -30 -140
-30 -166 -36 -191 -59 -219 -12 -14 -39 -49 -61 -78 -22 -29 -49 -57 -60 -63
-31 -16 -24 6 8 29 38 26 63 104 102 311 16 89 30 164 30 167 0 2 -15 3 -32 1
l-33 -3 -36 -180 c-20 -99 -48 -217 -63 -261 -25 -77 -30 -83 -77 -113 -43
-26 -54 -29 -72 -19 -14 7 -17 13 -9 16 7 2 19 -1 26 -8 15 -12 31 22 76 165
26 84 81 347 74 355 -3 2 -14 -6 -25 -20 -38 -49 -59 -99 -59 -145 0 -25 -4
-44 -9 -41 -5 3 -12 -6 -15 -22 -14 -63 -80 -262 -87 -262 -4 0 -16 8 -27 18
l-21 17 45 154 c25 85 43 162 42 170 -2 9 -20 -16 -40 -55 -104 -197 -84 -345
50 -380 37 -10 156 68 252 165 97 98 155 196 190 323 23 85 41 295 33 387 l-6
61 -53 20 c-116 43 -357 101 -413 99 -14 -1 -66 -9 -114 -20z m338 -44 c138
-35 205 -60 217 -79 4 -6 8 -65 8 -131 0 -178 -29 -318 -88 -427 -37 -71 -45
-58 -11 17 49 109 70 213 76 381 l6 151 -94 31 c-209 69 -311 85 -405 66 -102
-21 -149 -33 -252 -66 l-94 -30 4 -149 c3 -139 -2 -180 -15 -126 -6 21 -9 131
-8 229 1 27 7 53 16 62 18 18 150 60 290 92 122 28 170 25 350 -21z m-179 -35
c18 -1 18 -1 1 -11 -13 -7 -16 -17 -11 -32 6 -19 5 -20 -10 -8 -13 11 -19 11
-32 0 -15 -12 -16 -11 -10 8 5 15 2 25 -11 32 -16 9 -16 10 5 11 14 0 22 6 22
18 1 16 1 16 14 0 7 -10 22 -18 32 -18z m-135 -17 c10 3 19 1 19 -4 0 -5 -5
-9 -11 -9 -6 0 -8 -9 -4 -22 6 -16 4 -20 -9 -15 -8 3 -18 2 -21 -3 -10 -16
-25 -11 -19 5 4 9 -1 18 -12 22 -15 6 -15 7 4 14 12 5 23 16 23 26 1 17 2 17
6 0 3 -13 11 -17 24 -14z m252 -8 c20 -6 20 -8 4 -12 -13 -3 -17 -11 -14 -24
3 -10 1 -19 -4 -19 -5 0 -9 5 -9 11 0 6 -9 8 -21 4 -18 -6 -20 -4 -14 14 4 12
2 21 -4 21 -6 0 -11 4 -11 10 0 5 7 7 15 4 9 -4 18 1 22 12 6 17 8 17 11 3 2
-10 13 -20 25 -24z m-365 -31 c7 4 12 3 12 -3 0 -5 -5 -13 -10 -16 -8 -5 -7
-12 2 -22 11 -14 10 -15 -9 -9 -15 5 -25 2 -32 -11 -9 -16 -10 -16 -11 4 0 12
-8 27 -17 32 -16 9 -16 10 5 11 16 0 22 6 22 22 0 21 1 21 13 3 8 -10 19 -15
25 -11z m-86 0 c-5 -9 -7 -26 -5 -38 4 -16 3 -18 -5 -6 -6 8 -26 14 -46 13
-20 -1 -36 2 -36 6 0 12 55 40 78 41 18 0 21 -3 14 -16z m571 -14 c20 -1 20
-2 5 -11 -19 -11 -25 -49 -8 -49 6 0 10 -4 10 -10 0 -19 -17 -10 -30 15 -10
19 -19 24 -34 19 -18 -6 -19 -5 -8 9 9 10 10 17 2 22 -15 9 -12 25 4 19 8 -3
18 1 22 8 7 10 9 9 12 -4 2 -11 13 -18 25 -18z m72 20 c15 -6 34 -18 43 -27
16 -15 15 -16 -11 -9 -15 3 -37 2 -48 -5 -24 -12 -24 -12 -33 24 -7 30 4 34
49 17z m-349 -30 c11 0 28 6 38 13 16 12 22 10 48 -14 27 -24 33 -25 59 -15
24 9 32 8 39 -4 5 -8 6 -17 2 -21 -8 -6 -184 6 -224 16 -24 6 -30 3 -47 -27
-17 -28 -34 -39 -109 -66 -90 -32 -142 -40 -142 -22 0 5 9 14 19 19 10 6 23
23 29 39 9 25 13 28 46 24 32 -4 38 -1 53 27 12 21 23 29 33 25 38 -16 56 -14
80 9 22 21 27 23 41 11 8 -8 24 -14 35 -14z m-318 -43 c14 6 15 4 4 -9 -9 -11
-10 -18 -2 -23 16 -10 12 -25 -5 -19 -8 4 -22 1 -30 -6 -12 -10 -15 -9 -15 9
0 11 -6 21 -12 21 -7 0 -5 5 5 11 9 5 17 18 17 27 1 16 1 16 11 0 6 -11 16
-15 27 -11z m704 -17 c8 0 6 -5 -4 -11 -10 -5 -15 -16 -12 -24 4 -8 1 -15 -5
-15 -6 0 -11 5 -11 11 0 6 -8 9 -18 6 -15 -3 -19 1 -18 24 1 19 5 28 14 24 7
-2 16 3 19 12 5 14 8 13 14 -5 5 -12 14 -22 21 -22z"/>
<path d="M1575 2130 c-17 -7 -16 -9 10 -10 17 0 38 -7 48 -14 17 -13 67 -10
67 4 0 4 -17 11 -37 14 -21 4 -45 9 -53 11 -8 2 -24 0 -35 -5z"/>
<path d="M1726 2095 c-3 -8 -1 -15 4 -15 6 0 10 5 10 11 0 16 42 0 63 -23 9
-11 17 -32 17 -46 0 -25 -1 -25 -14 -6 -12 16 -26 19 -88 19 -62 -1 -82 -6
-135 -33 -127 -66 -260 -206 -304 -322 -29 -77 -23 -147 17 -197 34 -42 62
-57 49 -27 -35 78 -3 220 74 336 47 70 120 150 108 118 -26 -67 -30 -91 -19
-112 10 -22 11 -22 12 7 2 71 70 159 146 191 45 19 113 18 135 -2 17 -15 19
-14 25 10 10 40 -3 74 -36 91 -37 19 -56 19 -64 0z"/>
<path d="M1295 2068 c-27 -11 -73 -21 -102 -22 -46 -1 -49 -2 -30 -13 31 -17
66 -15 112 6 37 17 87 51 75 50 -3 0 -27 -9 -55 -21z"/>
<path d="M1317 2031 c-155 -103 -280 -127 -340 -66 -16 15 -17 15 -17 0 0 -34
30 -73 64 -85 42 -14 99 -1 166 37 44 25 230 162 230 169 0 10 -21 -2 -103
-55z"/>
<path d="M1445 2031 c-23 -10 -91 -52 -153 -94 -124 -84 -194 -112 -253 -104
-47 6 -49 -3 -8 -37 36 -31 93 -35 141 -10 17 9 77 59 133 113 59 56 124 107
156 123 60 30 47 38 -16 9z"/>
<path d="M1440 1963 c-14 -9 -61 -50 -105 -92 -103 -96 -158 -131 -207 -131
-41 0 -49 -13 -19 -30 28 -15 78 -12 105 5 l24 16 -25 -48 c-25 -50 -24 -85 3
-113 12 -12 14 -8 14 35 0 88 93 244 198 335 49 42 54 52 12 23z"/>
<path d="M2813 1495 c0 -33 2 -45 4 -27 2 18 2 45 0 60 -2 15 -4 0 -4 -33z"/>
<path d="M2797 1343 c-13 -159 -84 -374 -174 -523 -176 -291 -453 -499 -793
-596 -47 -13 -67 -21 -45 -18 116 17 312 100 443 188 277 185 474 465 552 788
20 80 38 238 28 238 -3 0 -8 -35 -11 -77z"/>
<path d="M673 1283 c-3 -10 -25 -64 -49 -120 l-42 -103 28 0 c21 0 29 6 34 25
6 23 11 25 61 25 50 0 55 -2 61 -25 5 -19 13 -25 35 -25 16 0 29 1 29 3 0 1
-23 54 -50 117 -43 100 -53 115 -75 118 -17 2 -27 -2 -32 -15z m66 -125 c1 -5
-15 -8 -35 -8 -30 0 -35 3 -29 18 4 9 12 30 18 47 l10 29 18 -39 c10 -22 18
-43 18 -47z"/>
<path d="M850 1180 l0 -120 25 0 c25 0 25 1 25 83 l1 82 28 -65 c37 -86 56
-87 90 -3 14 35 28 63 31 63 3 0 4 -36 2 -80 l-4 -80 26 0 26 0 0 120 0 120
-30 0 c-28 0 -33 -6 -62 -72 l-32 -72 -33 72 c-31 66 -36 72 -63 72 l-30 0 0
-120z"/>
<path d="M1150 1180 l0 -120 90 0 c88 0 90 1 86 23 -3 20 -7 22 -65 19 l-61
-4 0 31 c0 31 0 31 55 31 48 0 55 2 55 20 0 18 -7 20 -55 20 -55 0 -55 0 -55
31 l0 31 60 -4 c57 -4 60 -3 60 19 0 22 -3 23 -85 23 l-85 0 0 -120z"/>
<path d="M1360 1181 l0 -121 25 0 c23 0 25 4 25 40 0 33 3 40 20 40 12 0 30
-16 46 -40 21 -31 33 -40 55 -40 l29 0 -26 40 -27 41 21 20 c28 25 29 78 3
110 -16 20 -30 24 -95 27 l-76 4 0 -121z m124 66 c11 -8 17 -23 14 -38 -2 -20
-10 -25 -45 -30 l-43 -5 0 43 c0 40 2 43 28 43 16 0 36 -6 46 -13z"/>
<path d="M1590 1180 l0 -120 25 0 25 0 0 120 0 120 -25 0 -25 0 0 -120z"/>
<path d="M1738 1285 c-34 -19 -58 -63 -58 -105 0 -92 96 -148 180 -105 34 17
37 27 15 45 -11 9 -19 8 -37 -4 -32 -22 -55 -20 -83 9 -35 34 -34 86 1 114 32
25 52 26 83 5 21 -15 24 -15 39 0 15 15 15 17 0 32 -23 23 -106 28 -140 9z"/>
<path d="M1990 1289 c0 -5 -20 -58 -45 -116 -25 -58 -45 -107 -45 -109 0 -2
11 -4 25 -4 18 0 26 7 31 25 6 23 11 25 64 25 53 0 58 -2 64 -25 5 -19 13 -25
35 -25 l28 0 -51 120 c-48 112 -53 120 -78 120 -16 0 -28 -5 -28 -11z m56
-106 l13 -33 -35 0 c-39 0 -40 3 -18 56 11 25 19 34 22 24 2 -8 11 -30 18 -47z"/>
<path d="M2170 1180 l0 -120 26 0 27 0 -6 80 c-4 44 -5 80 -3 80 1 0 27 -36
57 -80 40 -59 60 -79 77 -80 22 0 22 2 22 120 0 119 0 120 -23 120 -23 0 -24
-2 -19 -80 2 -44 3 -80 0 -80 -2 0 -29 36 -59 80 -40 59 -60 80 -76 80 -23 0
-23 -2 -23 -120z"/>
<path d="M942 980 c-12 -5 -27 -21 -34 -35 -18 -39 1 -66 58 -85 28 -10 50
-24 52 -33 5 -24 -40 -32 -77 -13 -28 15 -31 15 -40 -3 -9 -16 -6 -20 17 -29
52 -20 70 -22 98 -12 35 14 44 26 44 62 0 30 -25 52 -73 64 -31 7 -45 30 -29
46 7 7 22 6 47 -2 31 -10 39 -10 46 1 14 23 11 28 -28 38 -44 13 -51 13 -81 1z"/>
<path d="M2044 976 c-17 -8 -39 -24 -48 -37 -20 -30 -21 -98 0 -127 17 -24 22
-26 42 -13 10 6 9 14 -5 39 -22 38 -10 79 30 102 25 14 30 13 56 -1 21 -12 32
-14 40 -6 18 18 13 27 -24 43 -42 17 -51 17 -91 0z"/>
<path d="M582 873 c3 -102 4 -106 26 -108 22 -2 22 1 22 107 l0 108 -25 0 -26
0 3 -107z"/>
<path d="M678 872 c3 -98 5 -108 23 -109 17 -2 19 5 19 74 l0 75 37 -53 c54
-80 66 -94 85 -95 15 -1 17 12 20 107 3 107 3 109 -19 109 -22 0 -23 -4 -23
-72 l0 -71 -50 71 c-37 53 -57 72 -73 72 -22 0 -22 -2 -19 -108z"/>
<path d="M1090 923 c0 -120 39 -173 115 -159 55 11 70 37 74 132 l3 84 -26 0
c-26 0 -26 -1 -26 -80 0 -68 -3 -81 -19 -90 -50 -26 -71 2 -71 96 0 72 -1 74
-25 74 -24 0 -25 -3 -25 -57z"/>
<path d="M1320 869 c0 -109 0 -110 23 -107 18 2 22 9 22 36 0 27 4 32 23 32
14 0 29 -11 42 -32 12 -20 28 -32 44 -34 32 -3 32 3 2 41 l-24 30 20 22 c26
28 27 76 3 103 -15 16 -31 20 -87 20 l-68 0 0 -111z m128 42 c4 -28 -12 -41
-53 -41 -28 0 -30 2 -28 37 1 21 2 38 2 39 1 0 18 -2 39 -5 29 -5 38 -11 40
-30z"/>
<path d="M1558 887 c-55 -135 -53 -126 -28 -124 13 1 26 11 30 23 7 18 18 23
59 25 47 4 52 2 59 -20 5 -15 17 -25 30 -26 12 -1 22 1 22 4 0 3 -19 51 -42
108 -38 91 -46 103 -68 103 -22 0 -29 -11 -62 -93z m78 8 c19 -45 19 -45 -17
-45 -24 0 -30 3 -25 16 3 9 9 27 12 40 8 32 12 30 30 -11z"/>
<path d="M1757 873 c1 -100 3 -108 22 -111 18 -3 20 3 23 69 l3 73 47 -69 c30
-43 55 -69 68 -70 19 -2 20 4 20 107 0 101 -1 108 -20 108 -18 0 -20 -7 -20
-72 l0 -71 -50 71 c-37 53 -57 72 -73 72 -21 0 -22 -3 -20 -107z"/>
<path d="M2208 875 l3 -105 65 -1 c35 -1 70 -2 77 -3 6 -1 12 8 12 19 0 18 -6
20 -57 17 l-58 -4 0 32 0 32 50 -4 c45 -3 50 -1 50 17 0 18 -5 20 -50 17 -49
-4 -50 -4 -50 25 l0 30 55 -5 c51 -4 55 -3 55 17 0 20 -5 21 -77 21 l-78 0 3
-105z"/>
<path d="M2108 865 c-27 -14 -38 -27 -38 -42 0 -16 -11 -28 -39 -42 -32 -17
-38 -24 -34 -46 l5 -25 -716 0 c-471 0 -716 -3 -716 -10 0 -7 245 -10 715 -10
l715 0 0 -34 c0 -40 -11 -46 -80 -46 -27 0 -52 -5 -56 -12 -5 -8 2 -9 26 -5
18 4 63 7 101 7 l69 0 0 59 c0 43 4 60 15 65 12 4 15 -7 17 -62 l2 -67 5 75
c3 41 2 77 -2 78 -4 2 -19 -4 -33 -13 -24 -16 -26 -21 -20 -66 6 -40 4 -49 -9
-49 -12 0 -15 13 -15 63 l0 63 40 23 c29 16 40 29 40 46 0 12 7 25 15 29 13 5
15 -13 15 -119 l0 -125 84 0 c46 0 98 -3 116 -7 22 -4 31 -3 27 4 -4 6 -52 14
-107 18 l-99 7 -3 132 -3 131 -37 -20z"/>
<path d="M2160 813 c0 -6 5 -15 10 -18 6 -3 10 -16 10 -29 0 -16 12 -29 40
-45 32 -18 40 -28 40 -52 0 -16 5 -29 11 -29 8 0 9 12 4 38 -4 20 -8 38 -8 38
-1 1 -17 9 -34 18 -18 9 -33 23 -33 30 0 17 -39 65 -40 49z"/>
<path d="M2280 700 c0 -5 23 -10 50 -10 28 0 50 5 50 10 0 6 -22 10 -50 10
-27 0 -50 -4 -50 -10z"/>
</g>
</svg>
