<?xml version="1.0" standalone="no"?>
<!DOCTYPE svg PUBLIC "-//W3C//DTD SVG 20010904//EN"
 "http://www.w3.org/TR/2001/REC-SVG-20010904/DTD/svg10.dtd">
<svg version="1.0" xmlns="http://www.w3.org/2000/svg"
 width="300.000000pt" height="300.000000pt" viewBox="0 0 300.000000 300.000000"
 preserveAspectRatio="xMidYMid meet">
<metadata>
Created by potrace 1.10, written by Peter Selinger 2001-2011
</metadata>
<g transform="translate(0.000000,300.000000) scale(0.100000,-0.100000)"
fill="#ffffff" stroke="none">
<path d="M1375 2830 c-589 -55 -1060 -462 -1206 -1044 -30 -119 -37 -379 -14
-517 46 -279 175 -529 375 -729 191 -191 418 -313 693 -372 135 -29 388 -31
520 -5 277 56 511 180 707 377 265 264 394 576 394 950 0 228 -45 414 -145
611 -249 485 -783 780 -1324 729z m386 -40 c262 -54 483 -174 679 -370 195
-195 313 -416 367 -688 26 -130 23 -375 -5 -509 -55 -258 -166 -466 -350 -655
-268 -277 -620 -419 -1002 -405 -355 13 -653 141 -901 387 -261 259 -392 576
-391 945 1 370 137 683 408 944 187 181 390 291 637 346 177 39 380 41 558 5z"/>
<path d="M1376 2800 c-599 -55 -1089 -505 -1191 -1094 -19 -115 -19 -317 1
-437 130 -775 918 -1265 1679 -1044 422 123 758 449 889 862 44 141 59 246 59
408 0 274 -70 502 -226 735 -63 95 -249 280 -347 345 -260 173 -563 252 -864
225z m349 -26 c257 -44 504 -173 690 -359 119 -118 183 -206 250 -340 100
-202 138 -363 138 -585 0 -362 -125 -664 -382 -921 -192 -191 -398 -304 -664
-361 -135 -29 -367 -30 -507 -3 -519 99 -908 468 -1038 983 -24 97 -26 125
-27 297 0 208 10 272 67 435 108 306 336 568 628 724 100 53 264 110 376 130
109 20 356 20 469 0z"/>
<path d="M1367 2410 c-93 -19 -302 -83 -326 -99 -12 -8 -15 -38 -14 -151 2
-186 5 -200 46 -199 18 0 57 8 87 18 l55 17 -35 7 c-30 6 -90 50 -90 66 0 3
31 5 68 3 59 -3 83 2 163 31 52 19 104 38 116 42 22 6 22 6 2 26 -28 28 -23
42 7 23 18 -13 58 -19 137 -24 77 -4 120 -11 137 -22 14 -9 40 -19 57 -23 18
-3 42 -19 54 -33 23 -30 22 -57 -4 -172 -8 -36 -22 -108 -32 -160 -20 -110
-25 -121 -77 -178 -21 -23 -36 -47 -33 -51 5 -9 -72 -81 -87 -81 -19 0 -5 21
32 51 32 26 44 46 60 97 15 49 80 363 80 388 0 2 -15 4 -33 4 l-33 0 -32 -167
c-17 -93 -45 -211 -61 -264 -29 -89 -33 -96 -71 -118 -22 -12 -40 -29 -40 -37
0 -19 -20 -17 -50 6 -31 24 -19 38 14 17 25 -17 25 -17 44 36 39 103 74 229
98 354 13 69 22 128 20 130 -6 6 -65 -72 -76 -101 -5 -15 -10 -48 -10 -72 0
-25 -4 -43 -9 -40 -5 3 -12 -6 -15 -22 -14 -63 -80 -262 -87 -262 -4 0 -17 8
-30 18 -22 19 -22 20 -6 60 19 48 77 260 77 282 0 20 -50 -62 -79 -128 -30
-72 -38 -175 -17 -225 16 -37 59 -72 104 -83 37 -10 156 68 253 165 96 97 153
194 188 321 25 88 44 309 35 391 l-7 59 -53 19 c-125 47 -351 102 -412 100
-15 0 -67 -9 -115 -19z m246 -20 c115 -23 285 -76 305 -95 29 -26 21 -272 -13
-410 -18 -76 -90 -235 -105 -235 -16 0 -12 17 25 88 52 103 75 212 82 388 l6
151 -94 31 c-117 38 -160 50 -258 67 -73 13 -85 12 -191 -10 -62 -14 -156 -39
-208 -56 l-94 -31 4 -154 c3 -121 1 -151 -8 -142 -14 15 -27 221 -17 281 l6
37 109 35 c61 19 144 42 186 50 42 9 78 18 81 21 10 10 89 3 184 -16z m-170
-47 c-3 -8 2 -13 16 -13 13 0 21 6 21 18 1 16 1 16 14 0 7 -10 19 -18 26 -18
9 0 10 -3 1 -14 -6 -7 -8 -22 -4 -32 6 -17 5 -17 -10 -5 -14 11 -20 11 -33 0
-15 -12 -16 -11 -10 8 5 16 2 25 -12 32 -26 14 -66 -18 -56 -44 6 -14 3 -16
-14 -10 -13 4 -22 2 -22 -4 0 -6 -4 -11 -9 -11 -5 0 -7 9 -4 20 4 14 0 20 -12
20 -12 0 -15 -5 -9 -22 9 -29 21 -37 48 -30 30 7 46 22 46 43 0 26 14 24 29
-5 11 -19 18 -22 44 -17 44 9 67 54 41 82 -18 20 -13 22 35 13 l31 -6 -24 -19
c-24 -19 -26 -48 -3 -76 13 -18 66 -16 73 2 4 8 10 15 16 15 5 0 6 -4 3 -10
-3 -5 -1 -10 5 -10 6 0 8 -5 5 -11 -4 -5 1 -19 11 -30 17 -19 16 -19 -87 -13
-57 3 -119 12 -138 20 -40 17 -65 3 -58 -32 3 -18 -5 -25 -47 -43 -89 -37
-157 -53 -210 -49 -50 3 -51 3 -54 38 -3 34 -3 35 13 13 8 -12 24 -21 35 -20
10 1 17 3 15 6 -3 2 5 9 17 15 31 16 34 60 6 80 -29 20 -47 20 -70 -1 -17 -15
-18 -15 -18 10 0 14 6 29 13 34 17 11 120 43 125 38 2 -2 -6 -13 -17 -24 -26
-26 -26 -30 2 -64 20 -26 24 -27 55 -16 23 8 32 18 34 35 0 13 1 30 2 36 1 7
-12 19 -29 27 l-30 15 40 12 c44 12 55 10 37 -8 -18 -18 -14 -27 9 -21 11 3
25 15 29 27 8 18 9 18 9 3 1 -12 7 -17 18 -15 23 4 28 28 6 29 -13 1 -11 3 7
8 37 11 49 9 43 -6z m203 -44 c18 -7 18 -8 0 -8 -13 -1 -17 -6 -13 -21 3 -11
1 -20 -4 -20 -5 0 -9 5 -9 11 0 6 -9 9 -20 6 -17 -4 -20 -2 -15 14 4 11 2 19
-4 19 -6 0 -11 4 -11 9 0 5 9 7 20 4 15 -4 20 0 21 13 0 18 1 18 8 0 4 -11 16
-23 27 -27z m52 26 c29 -8 28 -17 -3 -32 -17 -8 -25 -8 -25 0 0 6 -8 19 -17
30 -20 22 -23 21 45 2z m150 -45 c40 -10 42 -13 42 -47 l0 -36 -20 26 c-21 26
-21 26 -53 8 -19 -10 -32 -26 -33 -38 -2 -31 -13 -43 -32 -36 -23 9 -46 33
-38 40 3 4 12 1 18 -5 9 -9 17 -3 35 23 25 36 23 50 -9 73 -30 22 -20 33 15
17 17 -8 51 -19 75 -25z m-577 -7 c20 5 26 -7 9 -18 -8 -5 -7 -12 2 -22 11
-14 10 -15 -9 -9 -15 5 -25 2 -33 -11 -10 -17 -11 -17 -7 2 2 12 -5 25 -18 32
-20 12 -20 12 3 13 16 0 22 6 23 23 1 18 2 19 6 4 3 -13 11 -17 24 -14z m492
-13 c22 -1 22 -1 2 -13 -13 -7 -20 -20 -18 -32 4 -19 3 -19 -10 -2 -10 11 -21
15 -33 10 -16 -6 -17 -5 -6 9 9 11 10 18 2 23 -18 11 -11 23 10 18 13 -3 20 0
21 8 1 8 3 6 6 -3 2 -10 14 -18 26 -18z m-595 -53 c14 6 15 4 4 -9 -9 -11 -10
-18 -2 -23 16 -10 12 -25 -5 -19 -8 4 -23 0 -32 -7 -15 -12 -16 -12 -10 3 4
11 0 21 -11 27 -16 10 -16 10 1 11 11 0 17 8 17 23 1 19 2 20 11 5 6 -11 16
-15 27 -11z m700 -17 c16 -1 16 -1 0 -11 -10 -5 -15 -16 -12 -24 4 -8 1 -15
-5 -15 -6 0 -11 5 -11 11 0 6 -9 9 -20 6 -21 -5 -28 7 -10 18 8 5 7 12 -2 23
-11 13 -10 15 5 9 12 -4 20 -1 25 11 6 14 7 14 10 -5 2 -13 11 -23 20 -23z
m17 -108 c-3 -3 -13 1 -21 10 -15 14 -14 18 3 44 l18 28 3 -38 c2 -21 1 -41
-3 -44z m1 -54 c-13 -91 -17 -115 -28 -165 -6 -29 -15 -53 -20 -53 -5 0 -7 8
-4 18 3 9 8 40 12 67 4 28 12 66 19 86 7 19 11 48 8 62 -4 18 -1 27 7 27 9 0
11 -12 6 -42z m-778 -33 c-3 -3 -9 2 -12 12 -6 14 -5 15 5 6 7 -7 10 -15 7
-18z m611 -151 c-7 -41 -17 -74 -22 -74 -5 0 -7 15 -3 33 4 17 9 50 12 72 8
55 15 74 21 57 3 -8 -1 -47 -8 -88z m-137 -16 c-7 -7 -13 -21 -13 -32 -1 -17
-2 -17 -6 -4 -5 19 15 63 25 54 3 -4 0 -12 -6 -18z m-20 -100 c-6 -6 -7 0 -4
19 5 21 7 23 10 9 2 -10 0 -22 -6 -28z m117 -84 c-22 -85 -48 -139 -49 -101 0
9 4 17 8 17 4 0 8 8 9 18 2 24 31 154 39 172 6 12 8 12 11 -3 3 -10 -5 -56
-18 -103z m-129 29 c0 -20 -17 -50 -24 -43 -2 3 -2 17 1 33 6 30 23 37 23 10z
m-23 -73 c1 -11 -2 -20 -8 -20 -5 0 -9 9 -9 20 0 11 4 20 8 20 4 0 8 -9 9 -20z
m-30 -102 c-19 -54 -22 -59 -25 -34 -2 16 1 33 7 39 6 6 11 21 11 34 0 13 6
23 14 23 11 0 10 -12 -7 -62z"/>
<path d="M1570 2130 c-12 -7 -8 -10 17 -10 17 0 35 -4 38 -10 8 -12 72 -13 79
-1 3 5 -13 12 -37 15 -23 4 -51 9 -62 12 -11 2 -27 0 -35 -6z"/>
<path d="M1723 2091 c-11 -17 -10 -19 2 -15 8 4 15 10 15 16 0 15 43 -2 63
-24 9 -11 17 -32 17 -46 0 -25 -1 -25 -14 -6 -12 16 -26 19 -88 19 -62 -1 -82
-6 -135 -33 -181 -93 -332 -294 -321 -428 5 -53 33 -105 68 -124 18 -9 18 -8
8 21 -27 78 15 230 95 342 52 72 105 125 93 92 -24 -63 -27 -78 -21 -103 8
-25 9 -24 16 18 18 97 109 180 204 188 43 3 60 1 74 -12 17 -16 19 -16 25 -1
19 50 -8 101 -59 111 -23 4 -33 1 -42 -15z m-168 -141 c-10 -11 -21 -17 -24
-14 -3 3 3 12 13 20 28 20 32 17 11 -6z m-145 -130 c0 -5 -5 -10 -11 -10 -5 0
-7 5 -4 10 3 6 8 10 11 10 2 0 4 -4 4 -10z m-46 -67 c-13 -27 -24 -54 -24 -61
0 -7 -5 -10 -12 -6 -6 4 -8 3 -5 -3 9 -14 -3 -74 -13 -68 -5 3 -6 -4 -3 -15 3
-11 2 -32 -2 -47 -7 -26 -8 -26 -15 -8 -9 23 -3 106 8 115 4 3 9 14 10 24 4
23 63 116 73 116 4 0 -4 -21 -17 -47z"/>
<path d="M1306 2073 c-33 -13 -82 -25 -112 -26 -58 -2 -58 -14 0 -24 29 -5 50
1 102 27 36 19 67 37 70 42 6 10 11 11 -60 -19z"/>
<path d="M1370 2061 c-169 -120 -330 -161 -391 -100 -15 15 -19 16 -19 4 0
-34 30 -74 64 -85 42 -14 99 -1 166 37 72 42 256 183 238 183 -2 0 -28 -18
-58 -39z"/>
<path d="M1444 2031 c-23 -10 -92 -53 -154 -94 -124 -84 -192 -112 -251 -104
-47 6 -49 -3 -8 -37 36 -31 93 -35 141 -10 17 9 77 60 134 114 62 59 124 108
156 124 60 29 44 35 -18 7z m-234 -185 c0 -15 -73 -46 -106 -45 l-39 0 48 13
c27 7 53 18 60 25 10 10 37 16 37 7z"/>
<path d="M1422 1948 c-22 -18 -77 -65 -121 -105 -95 -86 -126 -103 -183 -103
l-43 0 25 -20 c30 -23 82 -26 114 -5 l23 15 -25 -50 c-25 -51 -25 -51 -7 -88
l19 -37 6 60 c4 33 17 80 30 105 34 68 117 175 169 220 55 48 51 53 -7 8z
m-168 -193 c-4 -8 -13 -15 -21 -15 -13 0 -13 3 -3 15 7 8 16 15 21 15 5 0 6
-7 3 -15z"/>
<path d="M650 1223 c-18 -43 -40 -97 -50 -120 l-19 -43 28 0 c22 0 30 6 35 25
6 23 11 25 61 25 50 0 55 -2 61 -25 5 -19 13 -25 35 -25 16 0 29 1 29 3 0 1
-23 54 -50 117 -42 97 -53 115 -74 118 -21 3 -27 -5 -56 -75z m89 -65 c1 -5
-15 -8 -35 -8 -30 0 -35 3 -29 18 4 9 12 30 18 47 l10 29 18 -39 c10 -22 18
-43 18 -47z"/>
<path d="M850 1180 l0 -120 25 0 c25 0 25 1 25 83 l1 82 27 -65 c38 -88 54
-89 92 -6 16 36 31 66 32 66 2 0 2 -36 0 -80 l-4 -80 26 0 26 0 0 120 0 120
-30 0 c-28 0 -33 -6 -62 -72 l-32 -72 -33 72 c-31 66 -36 72 -63 72 l-30 0 0
-120z m50 66 c0 -8 -4 -18 -10 -21 -5 -3 -10 3 -10 14 0 12 5 21 10 21 6 0 10
-6 10 -14z m170 -1 c0 -8 -4 -15 -9 -15 -13 0 -22 16 -14 24 11 11 23 6 23 -9z"/>
<path d="M1150 1180 l0 -120 88 0 c85 0 89 1 87 22 -1 20 -6 21 -63 19 l-62
-2 0 30 c0 31 0 31 55 31 48 0 55 2 55 20 0 18 -7 20 -55 20 -55 0 -55 0 -55
31 l0 31 60 -4 c57 -3 60 -2 60 20 0 21 -4 22 -85 22 l-85 0 0 -120z"/>
<path d="M1360 1181 l0 -121 25 0 c22 0 25 4 25 39 0 34 3 40 21 38 13 -1 32
-17 47 -39 19 -29 31 -38 53 -38 l29 0 -26 39 -26 39 21 21 c27 27 27 81 2
112 -16 20 -30 24 -95 27 l-76 4 0 -121z m123 67 c12 -6 17 -18 15 -36 -3 -23
-9 -28 -45 -33 l-43 -5 0 42 c0 39 2 42 28 42 15 0 35 -5 45 -10z m-86 -100
c-3 -8 -6 -5 -6 6 -1 11 2 17 5 13 3 -3 4 -12 1 -19z"/>
<path d="M1590 1180 l0 -120 25 0 25 0 0 120 0 120 -25 0 -25 0 0 -120z"/>
<path d="M1738 1285 c-34 -19 -58 -63 -58 -105 0 -92 96 -148 180 -105 33 17
36 25 19 42 -9 9 -20 7 -46 -5 -31 -15 -37 -15 -61 -1 -54 30 -54 108 0 138
24 14 30 14 62 -1 30 -15 36 -15 47 -2 32 39 -86 71 -143 39z"/>
<path d="M1990 1289 c0 -5 -20 -58 -45 -116 -25 -58 -45 -107 -45 -109 0 -2
11 -4 25 -4 18 0 26 7 31 25 6 23 11 25 64 25 53 0 58 -2 64 -25 5 -19 13 -25
35 -25 l28 0 -51 120 c-48 112 -53 120 -78 120 -16 0 -28 -5 -28 -11z m56
-106 l13 -33 -35 0 c-39 0 -40 3 -18 56 11 25 19 34 22 24 2 -8 11 -30 18 -47z"/>
<path d="M2170 1180 l0 -120 26 0 26 0 -4 77 c-2 48 -8 78 -16 81 -7 2 -12 13
-12 24 0 11 5 18 13 15 6 -2 11 -11 11 -19 -2 -27 109 -173 134 -176 22 -3 22
-2 22 117 0 119 0 121 -23 121 -22 0 -22 -2 -19 -77 3 -43 8 -79 13 -81 10 -4
13 -42 3 -42 -12 0 -33 29 -23 32 5 2 -16 40 -48 85 -43 61 -64 82 -80 83 -23
0 -23 -2 -23 -120z"/>
<path d="M942 980 c-12 -5 -27 -21 -34 -35 -18 -41 2 -71 59 -87 50 -14 61
-33 31 -52 -13 -8 -26 -6 -52 7 -34 16 -36 16 -46 -2 -8 -16 -4 -21 32 -35 69
-28 128 -3 128 54 0 32 -24 54 -73 66 -31 7 -45 30 -29 46 7 7 22 6 47 -2 31
-10 39 -10 46 1 14 23 11 28 -28 38 -44 13 -51 13 -81 1z"/>
<path d="M2044 976 c-17 -8 -39 -24 -48 -37 -20 -30 -21 -98 0 -127 17 -24 22
-26 42 -13 10 6 9 14 -5 39 -22 38 -10 79 30 102 25 14 30 13 56 -1 21 -12 32
-14 40 -6 18 18 13 27 -24 43 -42 17 -51 17 -91 0z"/>
<path d="M582 873 c3 -102 4 -106 26 -108 22 -2 22 1 22 107 l0 108 -25 0 -26
0 3 -107z"/>
<path d="M678 872 c3 -99 5 -108 23 -108 17 0 19 8 19 74 0 46 -4 71 -10 67
-6 -4 -10 5 -10 20 0 28 24 31 26 4 0 -8 2 -19 2 -24 4 -23 98 -140 114 -141
15 -1 17 12 20 107 3 107 3 109 -19 109 -22 0 -23 -4 -23 -72 l0 -71 -50 71
c-37 53 -57 72 -73 72 -22 0 -22 -2 -19 -108z m162 -59 c0 -20 -3 -24 -11 -16
-7 7 -9 19 -6 27 10 24 17 19 17 -11z"/>
<path d="M1090 916 c0 -34 5 -77 11 -95 21 -61 111 -78 155 -30 15 16 20 40
23 105 l3 84 -26 0 c-26 0 -26 -1 -26 -80 0 -68 -3 -81 -19 -90 -50 -26 -71 2
-71 96 0 72 -1 74 -25 74 -24 0 -25 -2 -25 -64z"/>
<path d="M1320 871 l0 -108 25 0 c22 0 25 4 25 33 0 46 32 47 60 2 12 -20 28
-32 44 -34 32 -3 32 3 2 41 l-24 30 20 22 c26 28 27 76 3 103 -15 16 -31 20
-87 20 l-68 0 0 -109z m128 40 c4 -28 -12 -41 -53 -41 -28 0 -30 3 -30 35 0
36 0 36 40 33 34 -3 41 -7 43 -27z m-83 -61 c-3 -5 -10 -10 -16 -10 -5 0 -9 5
-9 10 0 6 7 10 16 10 8 0 12 -4 9 -10z"/>
<path d="M1558 887 c-55 -135 -53 -126 -28 -124 13 1 26 11 31 24 7 20 16 23
59 23 43 0 52 -3 59 -22 7 -18 51 -35 51 -19 0 3 -19 52 -42 108 -38 92 -46
103 -68 103 -22 0 -29 -11 -62 -93z m72 63 c0 -5 -2 -10 -4 -10 -3 0 -8 5 -11
10 -3 6 -1 10 4 10 6 0 11 -4 11 -10z m5 -56 c19 -47 20 -44 -16 -44 -26 0
-30 3 -24 18 4 9 10 27 12 40 7 30 10 28 28 -14z m-55 -48 c0 -3 -4 -8 -10
-11 -5 -3 -10 -1 -10 4 0 6 5 11 10 11 6 0 10 -2 10 -4z m100 -6 c0 -5 -4 -10
-10 -10 -5 0 -10 5 -10 10 0 6 5 10 10 10 6 0 10 -4 10 -10z"/>
<path d="M1757 873 c1 -97 3 -108 20 -108 15 0 19 11 23 69 l5 70 47 -69 c30
-43 55 -69 68 -70 19 -2 20 4 20 107 0 101 -1 108 -20 108 -18 0 -20 -7 -20
-71 0 -48 3 -68 11 -63 7 4 9 -2 7 -15 -4 -27 -23 -28 -24 -2 -1 11 -22 49
-48 85 -34 47 -53 66 -69 66 -21 0 -22 -3 -20 -107z m46 63 c3 -8 0 -17 -8
-19 -17 -7 -25 1 -18 19 7 18 19 18 26 0z"/>
<path d="M2208 875 l3 -105 70 0 c38 0 72 0 77 0 4 0 7 8 7 18 0 15 -8 17 -57
14 l-58 -4 0 32 0 32 50 -4 c45 -3 50 -1 50 17 0 18 -5 20 -50 17 -49 -4 -50
-3 -50 25 0 28 0 28 55 25 50 -4 55 -2 55 17 0 20 -6 21 -77 21 l-78 0 3 -105z
m29 -7 c-3 -8 -6 -5 -6 6 -1 11 2 17 5 13 3 -3 4 -12 1 -19z"/>
<path d="M2108 865 c-25 -13 -38 -28 -40 -44 -2 -15 -15 -30 -37 -42 -33 -18
-34 -19 -35 -91 l-1 -73 -60 -3 c-33 -2 -64 -8 -70 -14 -7 -8 -3 -9 15 -4 14
3 60 6 103 6 l77 0 0 59 c0 43 4 60 15 65 12 4 15 -7 17 -62 l2 -67 5 75 c3
41 2 77 -2 78 -4 2 -19 -4 -33 -13 -24 -15 -26 -22 -22 -66 4 -37 2 -49 -8
-49 -10 0 -14 17 -14 63 l0 63 40 23 c24 13 40 30 40 40 0 10 7 24 15 31 13
11 15 -3 15 -114 l0 -126 93 0 c50 0 103 -3 116 -7 15 -4 22 -2 18 4 -4 6 -52
14 -107 17 l-99 8 -3 131 -3 132 -37 -20z"/>
<path d="M2160 812 c0 -6 5 -14 10 -17 6 -3 10 -16 10 -29 0 -16 12 -29 40
-45 35 -19 40 -27 40 -57 0 -19 5 -34 10 -34 6 0 10 9 10 19 0 37 -19 70 -49
86 -17 8 -33 26 -37 40 -6 26 -34 56 -34 37z"/>
<path d="M570 700 c0 -7 243 -10 710 -10 467 0 710 3 710 10 0 7 -243 10 -710
10 -467 0 -710 -3 -710 -10z"/>
<path d="M2280 700 c0 -5 23 -10 50 -10 28 0 50 5 50 10 0 6 -22 10 -50 10
-27 0 -50 -4 -50 -10z"/>
</g>
</svg>
